<?xml version="1.0" encoding="utf-8"?>
<!-- Generator: Adobe Illustrator 27.0.0, SVG Export Plug-In . SVG Version: 6.00 Build 0)  -->
<svg version="1.1" id="图层_1" xmlns="http://www.w3.org/2000/svg" xmlns:xlink="http://www.w3.org/1999/xlink" x="0px" y="0px"
	 viewBox="0 0 302 100" style="enable-background:new 0 0 302 100;" xml:space="preserve">
<style type="text/css">
	.st0{fill:#8A46C6;}
	.st1{fill:#070608;}
</style>
<path class="st0" d="M54.82,0.21v77.55h-8.78V25.06l-18.46,41.3l-4.78-9.17L43.65,9.26l3.98-9.18c0.91-0.05,1.82-0.07,2.74-0.07
	C51.87,0.01,53.35,0.08,54.82,0.21L54.82,0.21z"/>
<path class="st1" d="M99.93,49.58c0,27.38-22.19,49.57-49.57,49.57S0.78,76.95,0.78,49.58c0-8.52,2.15-16.54,5.94-23.54
	c1.6-2.96,3.5-5.75,5.66-8.32l4.33,8.65l6.49,12.99l-4.25,10.22l-7.11-13.68c-1.53,4.28-2.35,8.89-2.35,13.68
	c0,22.57,18.31,40.87,40.88,40.87s40.87-18.29,40.87-40.87c0-17.72-11.28-32.8-27.05-38.46V1.97C84.82,7.94,99.93,26.99,99.93,49.58
	L99.93,49.58z"/>
<g>
	<path d="M152.26,38.99c3.88,3.88,5.82,8.56,5.82,14.04v2.22c0,5.52-1.94,10.22-5.82,14.1c-3.88,3.88-8.56,5.82-14.04,5.82
		c-5.52,0-10.22-1.94-14.1-5.82c-3.88-3.88-5.82-8.58-5.82-14.1v-2.22c0-5.48,1.94-10.16,5.82-14.04c3.88-3.88,8.58-5.82,14.1-5.82
		C143.7,33.17,148.38,35.11,152.26,38.99z M151.48,55.25v-2.22c0-3.64-1.3-6.76-3.9-9.36c-2.6-2.6-5.72-3.9-9.36-3.9
		c-3.68,0-6.81,1.3-9.39,3.9c-2.58,2.6-3.87,5.72-3.87,9.36v2.22c0,3.68,1.29,6.81,3.87,9.39c2.58,2.58,5.71,3.87,9.39,3.87
		c3.64,0,6.76-1.29,9.36-3.87C150.18,62.06,151.48,58.93,151.48,55.25z"/>
	<path d="M211.81,37.7c3.02,3.02,4.53,6.67,4.53,10.95v26.52c-1.8,0-3.35-0.65-4.65-1.95c-1.3-1.3-1.95-2.87-1.95-4.71V48.65
		c0-2.48-0.86-4.57-2.58-6.27c-1.72-1.7-3.84-2.57-6.36-2.61c-2.48,0.08-4.56,0.99-6.24,2.73s-2.52,3.83-2.52,6.27v26.4h-6.66V48.65
		c0-2.48-0.85-4.57-2.55-6.27c-1.7-1.7-3.81-2.57-6.33-2.61c-2.52,0.08-4.61,0.99-6.27,2.73c-1.66,1.74-2.49,3.83-2.49,6.27v19.74
		c0,1.84-0.65,3.41-1.95,4.71c-1.3,1.3-2.87,1.95-4.71,1.95V48.65c0-4.28,1.51-7.93,4.53-10.95c3.02-3.02,6.67-4.53,10.95-4.53
		c4.92,0,8.98,1.96,12.18,5.88c3.16-3.92,7.2-5.88,12.12-5.88C205.14,33.17,208.79,34.68,211.81,37.7z"/>
	<path d="M253.3,38.99c3.88,3.88,5.82,8.56,5.82,14.04v22.14c-1.8,0-3.35-0.65-4.65-1.95c-1.3-1.3-1.95-2.87-1.95-4.71v-6.6H226v6.6
		c0,1.84-0.65,3.41-1.95,4.71c-1.3,1.3-2.87,1.95-4.71,1.95V53.03c0-5.48,1.94-10.16,5.82-14.04c3.88-3.88,8.58-5.82,14.1-5.82
		C244.74,33.17,249.42,35.11,253.3,38.99z M226,55.25h26.52v-2.22c0-3.64-1.3-6.76-3.9-9.36c-2.6-2.6-5.72-3.9-9.36-3.9
		c-3.68,0-6.81,1.3-9.39,3.9c-2.58,2.6-3.87,5.72-3.87,9.36V55.25z"/>
	<path d="M296.08,38.99c3.88,3.88,5.82,8.56,5.82,14.04v2.22c0,5.52-1.94,10.22-5.82,14.1c-3.88,3.88-8.56,5.82-14.04,5.82
		c-5.52,0-10.22-1.94-14.1-5.82c-3.88-3.88-5.82-8.58-5.82-14.1v-2.22c0-5.48,1.94-10.16,5.82-14.04c3.88-3.88,8.58-5.82,14.1-5.82
		C287.52,33.17,292.2,35.11,296.08,38.99z M295.3,55.25v-2.22c0-3.64-1.3-6.76-3.9-9.36c-2.6-2.6-5.72-3.9-9.36-3.9
		c-3.68,0-6.81,1.3-9.39,3.9c-2.58,2.6-3.87,5.72-3.87,9.36v2.22c0,3.68,1.29,6.81,3.87,9.39c2.58,2.58,5.71,3.87,9.39,3.87
		c3.64,0,6.76-1.29,9.36-3.87C294,62.06,295.3,58.93,295.3,55.25z"/>
</g>
</svg>
